<?xml version="1.0" encoding="UTF-8"?>
<svg xmlns="http://www.w3.org/2000/svg" xmlns:xlink="http://www.w3.org/1999/xlink" width="300pt" height="175pt" viewBox="0 0 300 175" version="1.1">
<defs>
<filter id="alpha" filterUnits="objectBoundingBox" x="0%" y="0%" width="100%" height="100%">
  <feColorMatrix type="matrix" in="SourceGraphic" values="0 0 0 0 1 0 0 0 0 1 0 0 0 0 1 0 0 0 1 0"/>
</filter>
<mask id="mask0">
  <g filter="url(#alpha)">
<rect x="0" y="0" width="300" height="175" style="fill:rgb(0%,0%,0%);fill-opacity:0.619608;stroke:none;"/>
  </g>
</mask>
<clipPath id="clip1">
  <rect x="0" y="0" width="300" height="175"/>
</clipPath>
<g id="surface5" clip-path="url(#clip1)">
<path style=" stroke:none;fill-rule:nonzero;fill:rgb(87.058824%,90.980392%,96.078431%);fill-opacity:1;" d="M 32.730469 29.769531 C 32.730469 29.410156 33.019531 29.117188 33.378906 29.117188 L 64.328125 29.117188 C 64.6875 29.117188 64.980469 29.410156 64.980469 29.769531 C 64.980469 30.128906 64.6875 30.421875 64.328125 30.421875 L 33.378906 30.421875 C 33.019531 30.421875 32.730469 30.128906 32.730469 29.769531 Z M 32.730469 29.769531 "/>
<path style=" stroke:none;fill-rule:nonzero;fill:rgb(87.058824%,90.980392%,96.078431%);fill-opacity:1;" d="M 32.730469 25.769531 C 32.730469 25.410156 33.019531 25.117188 33.378906 25.117188 L 64.328125 25.117188 C 64.6875 25.117188 64.980469 25.410156 64.980469 25.769531 C 64.980469 26.128906 64.6875 26.421875 64.328125 26.421875 L 33.378906 26.421875 C 33.019531 26.421875 32.730469 26.128906 32.730469 25.769531 Z M 32.730469 25.769531 "/>
<path style=" stroke:none;fill-rule:nonzero;fill:rgb(87.058824%,90.980392%,96.078431%);fill-opacity:1;" d="M 32.730469 33.765625 C 32.730469 33.40625 33.019531 33.113281 33.378906 33.113281 L 58.890625 33.113281 C 59.253906 33.113281 59.542969 33.40625 59.542969 33.765625 C 59.542969 34.125 59.253906 34.417969 58.890625 34.417969 L 33.378906 34.417969 C 33.019531 34.417969 32.730469 34.125 32.730469 33.765625 Z M 32.730469 33.765625 "/>
</g>
<mask id="mask1">
  <g filter="url(#alpha)">
<rect x="0" y="0" width="300" height="175" style="fill:rgb(0%,0%,0%);fill-opacity:0.619608;stroke:none;"/>
  </g>
</mask>
<clipPath id="clip2">
  <rect x="0" y="0" width="300" height="175"/>
</clipPath>
<g id="surface8" clip-path="url(#clip2)">
<path style=" stroke:none;fill-rule:nonzero;fill:rgb(87.058824%,90.980392%,96.078431%);fill-opacity:1;" d="M 32.730469 42.335938 C 32.730469 41.976562 33.019531 41.683594 33.378906 41.683594 L 64.328125 41.683594 C 64.6875 41.683594 64.980469 41.976562 64.980469 42.335938 C 64.980469 42.695312 64.6875 42.988281 64.328125 42.988281 L 33.378906 42.988281 C 33.019531 42.988281 32.730469 42.695312 32.730469 42.335938 Z M 32.730469 42.335938 "/>
<path style=" stroke:none;fill-rule:nonzero;fill:rgb(87.058824%,90.980392%,96.078431%);fill-opacity:1;" d="M 32.730469 38.335938 C 32.730469 37.976562 33.019531 37.6875 33.378906 37.6875 L 64.328125 37.6875 C 64.6875 37.6875 64.980469 37.976562 64.980469 38.335938 C 64.980469 38.699219 64.6875 38.988281 64.328125 38.988281 L 33.378906 38.988281 C 33.019531 38.988281 32.730469 38.699219 32.730469 38.335938 Z M 32.730469 38.335938 "/>
<path style=" stroke:none;fill-rule:nonzero;fill:rgb(87.058824%,90.980392%,96.078431%);fill-opacity:1;" d="M 32.730469 46.332031 C 32.730469 45.972656 33.019531 45.683594 33.378906 45.683594 L 58.890625 45.683594 C 59.253906 45.683594 59.542969 45.972656 59.542969 46.332031 C 59.542969 46.695312 59.253906 46.984375 58.890625 46.984375 L 33.378906 46.984375 C 33.019531 46.984375 32.730469 46.695312 32.730469 46.332031 Z M 32.730469 46.332031 "/>
</g>
<mask id="mask2">
  <g filter="url(#alpha)">
<rect x="0" y="0" width="300" height="175" style="fill:rgb(0%,0%,0%);fill-opacity:0.619608;stroke:none;"/>
  </g>
</mask>
<clipPath id="clip3">
  <rect x="0" y="0" width="300" height="175"/>
</clipPath>
<g id="surface11" clip-path="url(#clip3)">
<path style=" stroke:none;fill-rule:nonzero;fill:rgb(87.058824%,90.980392%,96.078431%);fill-opacity:1;" d="M 32.730469 54.902344 C 32.730469 54.542969 33.019531 54.25 33.378906 54.25 L 64.328125 54.25 C 64.6875 54.25 64.980469 54.542969 64.980469 54.902344 C 64.980469 55.261719 64.6875 55.554688 64.328125 55.554688 L 33.378906 55.554688 C 33.019531 55.554688 32.730469 55.261719 32.730469 54.902344 Z M 32.730469 54.902344 "/>
<path style=" stroke:none;fill-rule:nonzero;fill:rgb(87.058824%,90.980392%,96.078431%);fill-opacity:1;" d="M 32.730469 50.90625 C 32.730469 50.542969 33.019531 50.253906 33.378906 50.253906 L 64.328125 50.253906 C 64.6875 50.253906 64.980469 50.542969 64.980469 50.90625 C 64.980469 51.265625 64.6875 51.558594 64.328125 51.558594 L 33.378906 51.558594 C 33.019531 51.558594 32.730469 51.265625 32.730469 50.90625 Z M 32.730469 50.90625 "/>
<path style=" stroke:none;fill-rule:nonzero;fill:rgb(87.058824%,90.980392%,96.078431%);fill-opacity:1;" d="M 32.730469 58.902344 C 32.730469 58.539062 33.019531 58.25 33.378906 58.25 L 58.890625 58.25 C 59.253906 58.25 59.542969 58.539062 59.542969 58.902344 C 59.542969 59.261719 59.253906 59.554688 58.890625 59.554688 L 33.378906 59.554688 C 33.019531 59.554688 32.730469 59.261719 32.730469 58.902344 Z M 32.730469 58.902344 "/>
</g>
<mask id="mask3">
  <g filter="url(#alpha)">
<rect x="0" y="0" width="300" height="175" style="fill:rgb(0%,0%,0%);fill-opacity:0.780392;stroke:none;"/>
  </g>
</mask>
<clipPath id="clip4">
  <rect x="0" y="0" width="300" height="175"/>
</clipPath>
<g id="surface14" clip-path="url(#clip4)">
<path style=" stroke:none;fill-rule:nonzero;fill:rgb(5.882353%,6.27451%,6.666667%);fill-opacity:1;" d="M 16.851562 157.074219 L 276.429688 157.074219 L 265.746094 120.484375 L 33.710938 120.484375 Z M 16.851562 157.074219 "/>
</g>
<mask id="mask4">
  <g filter="url(#alpha)">
<rect x="0" y="0" width="300" height="175" style="fill:rgb(0%,0%,0%);fill-opacity:0.760784;stroke:none;"/>
  </g>
</mask>
<clipPath id="clip5">
  <rect x="0" y="0" width="300" height="175"/>
</clipPath>
<g id="surface17" clip-path="url(#clip5)">
<path style=" stroke:none;fill-rule:nonzero;fill:rgb(5.882353%,6.27451%,6.666667%);fill-opacity:1;" d="M 228.496094 80.242188 L 226.691406 98.589844 L 168.621094 101.007812 L 171.351562 73.332031 C 172.601562 73.296875 173.863281 73.273438 175.136719 73.273438 C 200.679688 73.273438 214.992188 75.933594 228.496094 80.242188 Z M 228.496094 80.242188 "/>
</g>
<mask id="mask5">
  <g filter="url(#alpha)">
<rect x="0" y="0" width="300" height="175" style="fill:rgb(0%,0%,0%);fill-opacity:0.760784;stroke:none;"/>
  </g>
</mask>
<clipPath id="clip6">
  <rect x="0" y="0" width="300" height="175"/>
</clipPath>
<g id="surface20" clip-path="url(#clip6)">
<path style=" stroke:none;fill-rule:nonzero;fill:rgb(5.882353%,6.27451%,6.666667%);fill-opacity:1;" d="M 244.128906 97.898438 L 229.480469 98.480469 L 231.191406 81.140625 C 236.511719 82.980469 241.65625 85.300781 246.554688 88.074219 C 251.140625 90.675781 249.394531 97.691406 244.128906 97.898438 Z M 244.128906 97.898438 "/>
</g>
<mask id="mask6">
  <g filter="url(#alpha)">
<rect x="0" y="0" width="300" height="175" style="fill:rgb(0%,0%,0%);fill-opacity:0.760784;stroke:none;"/>
  </g>
</mask>
<clipPath id="clip7">
  <rect x="0" y="0" width="300" height="175"/>
</clipPath>
<g id="surface23" clip-path="url(#clip7)">
<path style=" stroke:none;fill-rule:nonzero;fill:rgb(5.882353%,6.27451%,6.666667%);fill-opacity:1;" d="M 168.558594 73.441406 L 165.828125 101.117188 L 90.890625 104.214844 C 90.304688 104.242188 89.769531 103.875 89.582031 103.316406 C 89.394531 102.757812 89.605469 102.140625 90.089844 101.8125 C 100.636719 94.730469 129.3125 75.445312 168.558594 73.441406 Z M 168.558594 73.441406 "/>
</g>
<mask id="mask7">
  <g filter="url(#alpha)">
<rect x="0" y="0" width="300" height="175" style="fill:rgb(0%,0%,0%);fill-opacity:0.14902;stroke:none;"/>
  </g>
</mask>
<clipPath id="clip8">
  <rect x="0" y="0" width="300" height="175"/>
</clipPath>
<g id="surface26" clip-path="url(#clip8)">
<path style=" stroke:none;fill-rule:nonzero;fill:rgb(0%,0%,0%);fill-opacity:1;" d="M 92.023438 31.058594 L 87.417969 27.703125 L 90.96875 27.582031 C 91.101562 28.796875 91.460938 29.972656 92.023438 31.058594 Z M 92.023438 31.058594 "/>
</g>
<mask id="mask8">
  <g filter="url(#alpha)">
<rect x="0" y="0" width="300" height="175" style="fill:rgb(0%,0%,0%);fill-opacity:0.14902;stroke:none;"/>
  </g>
</mask>
<clipPath id="clip9">
  <rect x="0" y="0" width="300" height="175"/>
</clipPath>
<g id="surface29" clip-path="url(#clip9)">
<path style=" stroke:none;fill-rule:nonzero;fill:rgb(0%,0%,0%);fill-opacity:1;" d="M 92.980469 22.691406 C 92.898438 22.691406 92.824219 22.632812 92.808594 22.550781 C 92.792969 22.464844 92.84375 22.382812 92.921875 22.359375 L 93.921875 22.023438 L 93.179688 20.476562 C 93.148438 20.394531 93.183594 20.296875 93.265625 20.257812 C 93.347656 20.21875 93.441406 20.25 93.488281 20.328125 L 94.394531 22.226562 L 93.03125 22.679688 C 93.015625 22.6875 93 22.691406 92.980469 22.691406 Z M 92.980469 22.691406 "/>
</g>
<mask id="mask9">
  <g filter="url(#alpha)">
<rect x="0" y="0" width="300" height="175" style="fill:rgb(0%,0%,0%);fill-opacity:0.25098;stroke:none;"/>
  </g>
</mask>
<clipPath id="clip10">
  <rect x="0" y="0" width="300" height="175"/>
</clipPath>
<g id="surface32" clip-path="url(#clip10)">
<path style=" stroke:none;fill-rule:nonzero;fill:rgb(5.882353%,6.27451%,6.666667%);fill-opacity:1;" d="M 90.144531 73.550781 C 90.097656 73.550781 90.0625 73.511719 90.0625 73.464844 L 89.992188 56.9375 C 89.992188 56.890625 90.03125 56.851562 90.078125 56.851562 C 90.125 56.851562 90.164062 56.890625 90.164062 56.9375 L 90.230469 73.464844 C 90.230469 73.488281 90.222656 73.511719 90.207031 73.527344 C 90.191406 73.542969 90.167969 73.550781 90.144531 73.550781 Z M 90.144531 73.550781 "/>
</g>
<mask id="mask10">
  <g filter="url(#alpha)">
<rect x="0" y="0" width="300" height="175" style="fill:rgb(0%,0%,0%);fill-opacity:0.25098;stroke:none;"/>
  </g>
</mask>
<clipPath id="clip11">
  <rect x="0" y="0" width="300" height="175"/>
</clipPath>
<g id="surface35" clip-path="url(#clip11)">
<path style=" stroke:none;fill-rule:nonzero;fill:rgb(5.882353%,6.27451%,6.666667%);fill-opacity:1;" d="M 84.441406 31.054688 C 84.441406 31.054688 90.101562 42.984375 90.101562 57.355469 L 81.796875 39.300781 L 83.8125 36.765625 L 80.984375 34.765625 L 81.515625 31.085938 C 82.4375 30.898438 84.441406 31.054688 84.441406 31.054688 Z M 84.441406 31.054688 "/>
</g>
<mask id="mask11">
  <g filter="url(#alpha)">
<rect x="0" y="0" width="300" height="175" style="fill:rgb(0%,0%,0%);fill-opacity:0.25098;stroke:none;"/>
  </g>
</mask>
<clipPath id="clip12">
  <rect x="0" y="0" width="300" height="175"/>
</clipPath>
<g id="surface38" clip-path="url(#clip12)">
<path style=" stroke:none;fill-rule:nonzero;fill:rgb(5.882353%,6.27451%,6.666667%);fill-opacity:1;" d="M 92.933594 31.054688 C 92.933594 31.054688 89.4375 45.148438 90.101562 57.355469 L 96.207031 39.300781 L 94.378906 37.035156 L 96.671875 35.296875 L 95.382812 31.121094 Z M 92.933594 31.054688 "/>
</g>
<mask id="mask12">
  <g filter="url(#alpha)">
<rect x="0" y="0" width="300" height="175" style="fill:rgb(0%,0%,0%);fill-opacity:0.25098;stroke:none;"/>
  </g>
</mask>
<clipPath id="clip13">
  <rect x="0" y="0" width="300" height="175"/>
</clipPath>
<g id="surface41" clip-path="url(#clip13)">
<path style=" stroke:none;fill-rule:nonzero;fill:rgb(5.882353%,6.27451%,6.666667%);fill-opacity:1;" d="M 89.539062 59.253906 C 89.539062 59.546875 89.296875 59.785156 89.003906 59.785156 C 88.710938 59.785156 88.46875 59.546875 88.46875 59.253906 C 88.46875 58.957031 88.710938 58.71875 89.003906 58.71875 C 89.296875 58.71875 89.539062 58.957031 89.539062 59.253906 Z M 89.539062 59.253906 "/>
</g>
<mask id="mask13">
  <g filter="url(#alpha)">
<rect x="0" y="0" width="300" height="175" style="fill:rgb(0%,0%,0%);fill-opacity:0.25098;stroke:none;"/>
  </g>
</mask>
<clipPath id="clip14">
  <rect x="0" y="0" width="300" height="175"/>
</clipPath>
<g id="surface44" clip-path="url(#clip14)">
<path style=" stroke:none;fill-rule:nonzero;fill:rgb(5.882353%,6.27451%,6.666667%);fill-opacity:1;" d="M 89.539062 63.546875 C 89.539062 63.839844 89.296875 64.078125 89.003906 64.078125 C 88.710938 64.078125 88.46875 63.839844 88.46875 63.546875 C 88.46875 63.25 88.710938 63.011719 89.003906 63.011719 C 89.296875 63.011719 89.539062 63.25 89.539062 63.546875 Z M 89.539062 63.546875 "/>
</g>
<mask id="mask14">
  <g filter="url(#alpha)">
<rect x="0" y="0" width="300" height="175" style="fill:rgb(0%,0%,0%);fill-opacity:0.25098;stroke:none;"/>
  </g>
</mask>
<clipPath id="clip15">
  <rect x="0" y="0" width="300" height="175"/>
</clipPath>
<g id="surface47" clip-path="url(#clip15)">
<path style=" stroke:none;fill-rule:nonzero;fill:rgb(5.882353%,6.27451%,6.666667%);fill-opacity:1;" d="M 89.539062 67.839844 C 89.539062 68.132812 89.296875 68.375 89.003906 68.375 C 88.710938 68.375 88.46875 68.132812 88.46875 67.839844 C 88.46875 67.546875 88.710938 67.304688 89.003906 67.304688 C 89.296875 67.304688 89.539062 67.546875 89.539062 67.839844 Z M 89.539062 67.839844 "/>
</g>
</defs>
<g id="surface1">
<path style=" stroke:none;fill-rule:nonzero;fill:rgb(75.686275%,84.705882%,92.941176%);fill-opacity:1;" d="M 27.128906 2.675781 L 27.128906 4.75 L 17.625 4.75 C 15.527344 4.75 13.828125 6.449219 13.828125 8.550781 L 13.828125 76.542969 C 13.828125 78.640625 15.527344 80.34375 17.625 80.34375 L 68.351562 80.34375 C 70.449219 80.34375 72.152344 78.640625 72.152344 76.542969 L 72.152344 8.550781 C 72.152344 6.449219 70.449219 4.75 68.351562 4.75 L 58.851562 4.75 L 58.851562 2.675781 C 58.851562 1.199219 57.652344 0 56.175781 0 L 29.800781 0 C 28.324219 0 27.128906 1.199219 27.128906 2.675781 Z M 27.128906 2.675781 "/>
<path style=" stroke:none;fill-rule:nonzero;fill:rgb(100%,100%,100%);fill-opacity:1;" d="M 17.339844 75.464844 L 17.339844 9.628906 C 17.339844 8.683594 18.105469 7.917969 19.046875 7.917969 L 66.929688 7.917969 C 67.875 7.917969 68.640625 8.683594 68.640625 9.628906 L 68.640625 75.464844 C 68.640625 76.410156 67.875 77.175781 66.929688 77.175781 L 19.046875 77.175781 C 18.105469 77.175781 17.339844 76.410156 17.339844 75.464844 Z M 17.339844 75.464844 "/>
<path style=" stroke:none;fill-rule:nonzero;fill:rgb(4.705882%,73.72549%,54.509804%);fill-opacity:1;" d="M 30.527344 10.96875 L 30.527344 4.863281 C 30.527344 4.222656 31.050781 3.703125 31.691406 3.703125 L 54.285156 3.703125 C 54.929688 3.703125 55.449219 4.222656 55.449219 4.863281 L 55.449219 10.96875 C 55.449219 11.613281 54.929688 12.132812 54.285156 12.132812 L 31.691406 12.132812 C 31.050781 12.132812 30.527344 11.613281 30.527344 10.96875 Z M 30.527344 10.96875 "/>
<path style=" stroke:none;fill-rule:nonzero;fill:rgb(87.058824%,90.980392%,96.078431%);fill-opacity:1;" d="M 28.210938 34.714844 L 22.621094 34.714844 C 21.433594 34.714844 20.472656 33.75 20.472656 32.566406 L 20.472656 26.972656 C 20.472656 25.785156 21.433594 24.824219 22.621094 24.824219 L 28.210938 24.824219 C 29.394531 24.824219 30.355469 25.785156 30.355469 26.972656 L 30.355469 32.566406 C 30.355469 33.753906 29.394531 34.714844 28.210938 34.714844 Z M 22.621094 25.910156 C 22.035156 25.914062 21.5625 26.386719 21.5625 26.972656 L 21.5625 32.566406 C 21.5625 33.152344 22.035156 33.625 22.621094 33.625 L 28.207031 33.625 C 28.792969 33.625 29.265625 33.152344 29.265625 32.566406 L 29.265625 26.972656 C 29.265625 26.390625 28.792969 25.914062 28.207031 25.914062 Z M 22.621094 25.910156 "/>
<path style=" stroke:none;fill-rule:nonzero;fill:rgb(87.058824%,90.980392%,96.078431%);fill-opacity:1;" d="M 28.210938 47.28125 L 22.621094 47.28125 C 21.433594 47.28125 20.472656 46.316406 20.472656 45.132812 L 20.472656 39.539062 C 20.472656 38.351562 21.433594 37.390625 22.621094 37.390625 L 28.210938 37.390625 C 29.394531 37.390625 30.355469 38.351562 30.355469 39.539062 L 30.355469 45.132812 C 30.355469 46.316406 29.394531 47.28125 28.210938 47.28125 Z M 22.621094 38.480469 C 22.035156 38.480469 21.5625 38.953125 21.5625 39.539062 L 21.5625 45.132812 C 21.5625 45.714844 22.035156 46.191406 22.621094 46.191406 L 28.210938 46.191406 C 28.792969 46.191406 29.269531 45.714844 29.269531 45.132812 L 29.269531 39.539062 C 29.269531 38.953125 28.792969 38.480469 28.210938 38.480469 Z M 22.621094 38.480469 "/>
<path style=" stroke:none;fill-rule:nonzero;fill:rgb(87.058824%,90.980392%,96.078431%);fill-opacity:1;" d="M 28.210938 59.847656 L 22.621094 59.847656 C 21.433594 59.847656 20.472656 58.886719 20.472656 57.699219 L 20.472656 52.105469 C 20.472656 50.917969 21.433594 49.957031 22.621094 49.957031 L 28.210938 49.957031 C 29.394531 49.957031 30.355469 50.917969 30.355469 52.105469 L 30.355469 57.699219 C 30.355469 58.886719 29.394531 59.847656 28.210938 59.847656 Z M 22.621094 51.046875 C 22.035156 51.046875 21.5625 51.519531 21.5625 52.105469 L 21.5625 57.699219 C 21.5625 58.285156 22.035156 58.757812 22.621094 58.757812 L 28.210938 58.757812 C 28.792969 58.757812 29.269531 58.285156 29.269531 57.699219 L 29.269531 52.105469 C 29.269531 51.519531 28.792969 51.046875 28.210938 51.046875 Z M 22.621094 51.046875 "/>
<path style=" stroke:none;fill-rule:nonzero;fill:rgb(14.901961%,14.901961%,14.901961%);fill-opacity:1;" d="M 24.25 31.925781 C 24.109375 31.929688 23.972656 31.867188 23.878906 31.761719 L 22.222656 29.863281 C 22.046875 29.65625 22.070312 29.355469 22.273438 29.175781 C 22.472656 29 22.777344 29.019531 22.957031 29.21875 L 24.300781 30.753906 L 27.925781 27.722656 C 28.132812 27.5625 28.429688 27.597656 28.597656 27.796875 C 28.765625 28 28.746094 28.296875 28.554688 28.472656 L 24.5625 31.8125 C 24.472656 31.886719 24.363281 31.925781 24.25 31.925781 Z M 24.25 31.925781 "/>
<path style=" stroke:none;fill-rule:nonzero;fill:rgb(14.901961%,14.901961%,14.901961%);fill-opacity:1;" d="M 24.25 44.496094 C 24.109375 44.496094 23.972656 44.433594 23.878906 44.328125 L 22.222656 42.429688 C 22.046875 42.226562 22.070312 41.921875 22.273438 41.746094 C 22.472656 41.570312 22.777344 41.585938 22.957031 41.785156 L 24.300781 43.324219 L 27.925781 40.289062 C 28.132812 40.132812 28.429688 40.164062 28.597656 40.363281 C 28.765625 40.566406 28.746094 40.863281 28.554688 41.039062 L 24.5625 44.378906 C 24.476562 44.453125 24.363281 44.496094 24.25 44.496094 Z M 24.25 44.496094 "/>
<path style=" stroke:none;fill-rule:nonzero;fill:rgb(14.901961%,14.901961%,14.901961%);fill-opacity:1;" d="M 24.25 57.0625 C 24.109375 57.0625 23.972656 57 23.878906 56.894531 L 22.222656 54.996094 C 22.042969 54.792969 22.0625 54.484375 22.265625 54.304688 C 22.46875 54.128906 22.78125 54.148438 22.957031 54.351562 L 24.300781 55.890625 L 27.925781 52.859375 C 28.132812 52.699219 28.429688 52.730469 28.597656 52.933594 C 28.765625 53.132812 28.746094 53.429688 28.554688 53.609375 L 24.5625 56.945312 C 24.476562 57.019531 24.363281 57.0625 24.25 57.0625 Z M 24.25 57.0625 "/>
<use xlink:href="#surface5" mask="url(#mask0)"/>
<use xlink:href="#surface8" mask="url(#mask1)"/>
<use xlink:href="#surface11" mask="url(#mask2)"/>
<path style=" stroke:none;fill-rule:nonzero;fill:rgb(84.313725%,90.980392%,95.686275%);fill-opacity:1;" d="M 29.023438 16.28125 C 29.023438 15.855469 29.367188 15.511719 29.792969 15.511719 L 56.183594 15.511719 C 56.609375 15.511719 56.957031 15.855469 56.957031 16.28125 C 56.957031 16.707031 56.609375 17.054688 56.183594 17.054688 L 29.792969 17.054688 C 29.367188 17.054688 29.023438 16.707031 29.023438 16.28125 Z M 29.023438 16.28125 "/>
<path style=" stroke:none;fill-rule:nonzero;fill:rgb(84.313725%,90.980392%,95.686275%);fill-opacity:1;" d="M 32.238281 19.746094 C 32.238281 19.320312 32.585938 18.972656 33.011719 18.972656 L 52.96875 18.972656 C 53.394531 18.972656 53.738281 19.320312 53.738281 19.746094 C 53.738281 20.171875 53.394531 20.515625 52.96875 20.515625 L 33.011719 20.515625 C 32.585938 20.515625 32.238281 20.171875 32.238281 19.746094 Z M 32.238281 19.746094 "/>
<path style=" stroke:none;fill-rule:nonzero;fill:rgb(14.901961%,14.901961%,14.901961%);fill-opacity:1;" d="M 58.75 66.742188 C 58.617188 66.132812 58.578125 65.492188 58.140625 65.015625 C 57.902344 64.757812 57.628906 64.539062 57.257812 64.660156 C 56.804688 64.8125 56.78125 65.25 56.742188 65.660156 C 56.632812 66.800781 56.742188 67.953125 57.066406 69.054688 C 57.351562 70.039062 57.800781 71.230469 58.601562 71.910156 C 58.929688 72.203125 59.375 72.339844 59.8125 72.277344 C 60.25 72.21875 60.640625 71.96875 60.878906 71.59375 C 61.390625 70.847656 61.496094 69.894531 61.15625 69.054688 C 60.902344 68.394531 60.160156 67.335938 59.328125 67.46875 C 58.429688 67.609375 58.390625 68.789062 59.050781 69.242188 C 60.148438 69.996094 61.183594 68.835938 61.824219 68.0625 C 61.960938 67.898438 62.027344 67.742188 62.171875 68.035156 C 62.21875 68.128906 62.234375 68.238281 62.28125 68.339844 C 62.367188 68.535156 62.539062 68.683594 62.75 68.730469 C 63.046875 68.753906 63.347656 68.695312 63.613281 68.5625 L 64.765625 68.160156 C 65.074219 68.054688 64.941406 67.558594 64.628906 67.667969 C 64.195312 67.820312 63.765625 67.96875 63.332031 68.117188 C 63.128906 68.1875 62.878906 68.332031 62.738281 68.109375 C 62.640625 67.957031 62.632812 67.761719 62.527344 67.605469 C 62.410156 67.40625 62.183594 67.292969 61.949219 67.320312 C 61.644531 67.375 61.445312 67.726562 61.261719 67.945312 C 61.027344 68.269531 60.738281 68.550781 60.40625 68.773438 C 60.035156 68.988281 59.410156 69.085938 59.152344 68.632812 C 59.058594 68.484375 59.0625 68.292969 59.164062 68.148438 C 59.328125 67.914062 59.550781 67.96875 59.773438 68.105469 C 60.066406 68.289062 60.3125 68.542969 60.488281 68.84375 C 60.84375 69.429688 60.929688 70.140625 60.726562 70.796875 C 60.46875 71.546875 59.683594 72.140625 58.960938 71.550781 C 58.359375 71.0625 58.003906 70.195312 57.742188 69.488281 C 57.453125 68.703125 57.277344 67.878906 57.226562 67.046875 C 57.199219 66.582031 57.207031 66.121094 57.253906 65.660156 C 57.273438 65.441406 57.261719 65 57.613281 65.210938 C 57.703125 65.28125 57.785156 65.367188 57.851562 65.464844 C 58.144531 65.832031 58.15625 66.441406 58.253906 66.882812 C 58.320312 67.203125 58.816406 67.070312 58.746094 66.746094 Z M 58.75 66.742188 "/>
<path style=" stroke:none;fill-rule:nonzero;fill:rgb(75.686275%,84.705882%,92.941176%);fill-opacity:1;" d="M 218.023438 74.933594 C 218.023438 74.933594 224.671875 73.269531 230.371094 73.269531 C 233.46875 73.269531 235.894531 73.414062 237.464844 73.546875 C 238.59375 73.644531 239.433594 74.628906 239.351562 75.761719 L 239.15625 78.496094 Z M 218.023438 74.933594 "/>
<path style=" stroke:none;fill-rule:nonzero;fill:rgb(75.686275%,84.705882%,92.941176%);fill-opacity:1;" d="M 16.851562 157.074219 L 276.429688 157.074219 L 265.746094 120.484375 L 33.710938 120.484375 Z M 16.851562 157.074219 "/>
<use xlink:href="#surface14" mask="url(#mask3)"/>
<path style=" stroke:none;fill-rule:nonzero;fill:rgb(87.058824%,90.980392%,96.078431%);fill-opacity:1;" d="M 298.6875 146.472656 C 298.140625 149.164062 297.351562 151.378906 296.296875 152.859375 C 289.015625 163 270.339844 162.683594 270.339844 162.683594 C 270.457031 159.054688 270.207031 155.425781 269.585938 151.851562 C 267.667969 140.472656 261.1875 124.308594 239.867188 125.0625 C 218.265625 125.828125 212.625 143.144531 211.203125 154.011719 C 210.816406 156.886719 210.6875 159.785156 210.816406 162.683594 L 83.730469 162.683594 C 83.632812 160.265625 83.371094 157.855469 82.957031 155.46875 C 81.011719 143.800781 74.207031 122.257812 50.492188 124.347656 C 29.074219 126.242188 25.105469 144.640625 24.632812 155.238281 C 24.5 157.722656 24.5625 160.210938 24.828125 162.683594 C 24.828125 162.683594 12.851562 160.933594 6.78125 158.347656 C 5.09375 157.632812 3.8125 156.199219 3.289062 154.4375 L 2.828125 152.90625 L 0.289062 144.46875 C -0.0703125 143.265625 0.09375 141.964844 0.738281 140.886719 L 2.683594 137.65625 C 2.378906 135.828125 2.277344 133.972656 2.378906 132.121094 C 2.550781 128.34375 3.582031 123.402344 7.257812 119.78125 L 7.28125 119.757812 C 9.023438 118.082031 11.136719 116.832031 13.445312 116.113281 C 31.101562 110.332031 65.675781 103.835938 69.800781 102.488281 C 78.09375 99.929688 86.09375 96.492188 93.660156 92.242188 C 113.378906 81.140625 144.03125 71.375 168.328125 70.492188 C 207.152344 69.082031 242.152344 71.453125 297.558594 98.058594 C 297.558594 98.058594 297.644531 98.664062 297.777344 99.746094 L 297.777344 99.757812 C 298.152344 102.804688 298.917969 109.617188 299.429688 117.460938 C 300.058594 127.347656 300.265625 138.859375 298.6875 146.472656 Z M 298.6875 146.472656 "/>
<path style=" stroke:none;fill-rule:nonzero;fill:rgb(95.294118%,96.078431%,99.215686%);fill-opacity:1;" d="M 18.042969 123.800781 C 18.042969 126.726562 16.539062 130.867188 2.378906 132.117188 C 2.546875 128.34375 3.578125 123.398438 7.257812 119.78125 L 7.28125 119.757812 C 7.910156 119.757812 18.042969 120.863281 18.042969 123.800781 Z M 18.042969 123.800781 "/>
<path style=" stroke:none;fill-rule:nonzero;fill:rgb(99.215686%,36.470588%,46.27451%);fill-opacity:1;" d="M 299.425781 117.460938 L 280.703125 117.460938 C 279.160156 117.460938 275.59375 116.152344 277.027344 109.738281 C 278.445312 103.328125 297.777344 99.746094 297.777344 99.746094 L 297.777344 99.757812 C 298.152344 102.804688 298.917969 109.617188 299.425781 117.460938 Z M 299.425781 117.460938 "/>
<use xlink:href="#surface17" mask="url(#mask4)"/>
<use xlink:href="#surface20" mask="url(#mask5)"/>
<path style=" stroke:none;fill-rule:nonzero;fill:rgb(75.686275%,84.705882%,92.941176%);fill-opacity:1;" d="M 145.097656 110.808594 L 156.496094 110.808594 C 157.085938 110.808594 157.5625 111.285156 157.5625 111.878906 C 157.5625 112.46875 157.085938 112.945312 156.496094 112.945312 L 145.097656 112.945312 C 144.507812 112.945312 144.03125 112.46875 144.03125 111.878906 C 144.03125 111.285156 144.507812 110.808594 145.097656 110.808594 Z M 145.097656 110.808594 "/>
<path style=" stroke:none;fill-rule:nonzero;fill:rgb(75.686275%,84.705882%,92.941176%);fill-opacity:1;" d="M 24.828125 162.683594 C 24.828125 162.683594 12.851562 160.933594 6.78125 158.347656 C 5.09375 157.632812 3.8125 156.199219 3.289062 154.4375 L 2.828125 152.90625 C 7.039062 153.722656 13.945312 154.691406 24.636719 155.238281 C 24.5 157.722656 24.566406 160.210938 24.828125 162.683594 Z M 24.828125 162.683594 "/>
<path style=" stroke:none;fill-rule:nonzero;fill:rgb(75.686275%,84.705882%,92.941176%);fill-opacity:1;" d="M 211.203125 154.015625 C 210.816406 156.886719 210.6875 159.789062 210.816406 162.683594 L 83.730469 162.683594 C 83.632812 160.265625 83.371094 157.855469 82.957031 155.46875 C 123.996094 155.105469 176.046875 154.4375 211.203125 154.015625 Z M 211.203125 154.015625 "/>
<path style=" stroke:none;fill-rule:nonzero;fill:rgb(75.686275%,84.705882%,92.941176%);fill-opacity:1;" d="M 298.6875 146.472656 C 298.140625 149.164062 297.351562 151.378906 296.296875 152.859375 C 289.015625 163 270.339844 162.683594 270.339844 162.683594 C 270.457031 159.054688 270.207031 155.425781 269.585938 151.851562 C 280.945312 150.757812 292.691406 149.058594 298.6875 146.472656 Z M 298.6875 146.472656 "/>
<path style=" stroke:none;fill-rule:nonzero;fill:rgb(75.686275%,84.705882%,92.941176%);fill-opacity:1;" d="M 163.917969 157.816406 L 162.933594 157.78125 L 166.707031 100.550781 L 167.691406 100.585938 Z M 163.917969 157.816406 "/>
<path style=" stroke:none;fill-rule:nonzero;fill:rgb(75.686275%,84.705882%,92.941176%);fill-opacity:1;" d="M 89.941406 104.238281 L 90.925781 104.238281 L 90.925781 158.347656 L 89.941406 158.347656 Z M 89.941406 104.238281 "/>
<use xlink:href="#surface23" mask="url(#mask6)"/>
<path style=" stroke:none;fill-rule:nonzero;fill:rgb(75.686275%,84.705882%,92.941176%);fill-opacity:1;" d="M 88.4375 102.253906 L 94.371094 102.253906 C 97.976562 102.253906 100.902344 105.179688 100.902344 108.789062 C 100.902344 109.902344 100 110.808594 98.882812 110.808594 L 88.4375 110.808594 C 87.324219 110.808594 86.417969 109.902344 86.417969 108.789062 L 86.417969 104.273438 C 86.417969 103.160156 87.324219 102.253906 88.4375 102.253906 Z M 88.4375 102.253906 "/>
<path style=" stroke:none;fill-rule:nonzero;fill:rgb(5.882353%,6.27451%,6.666667%);fill-opacity:1;" d="M 77.4375 151.066406 C 77.4375 164.285156 66.730469 175 53.523438 175 C 40.3125 175 29.605469 164.285156 29.605469 151.066406 C 29.605469 137.851562 40.3125 127.136719 53.523438 127.136719 C 66.730469 127.136719 77.4375 137.851562 77.4375 151.066406 Z M 77.4375 151.066406 "/>
<path style=" stroke:none;fill-rule:nonzero;fill:rgb(95.294118%,96.078431%,99.215686%);fill-opacity:1;" d="M 53.523438 135.753906 C 61.972656 135.753906 68.824219 142.609375 68.824219 151.066406 C 68.824219 159.523438 61.972656 166.382812 53.523438 166.382812 C 45.070312 166.382812 38.21875 159.523438 38.21875 151.066406 C 38.230469 142.613281 45.074219 135.765625 53.523438 135.753906 M 53.523438 134.144531 C 44.183594 134.144531 36.609375 141.722656 36.609375 151.070312 C 36.609375 160.414062 44.183594 167.992188 53.523438 167.992188 C 62.863281 167.992188 70.433594 160.414062 70.433594 151.066406 C 70.433594 141.722656 62.863281 134.144531 53.523438 134.144531 Z M 53.523438 134.144531 "/>
<path style=" stroke:none;fill-rule:nonzero;fill:rgb(95.294118%,96.078431%,99.215686%);fill-opacity:1;" d="M 57.550781 151.066406 C 57.550781 153.292969 55.746094 155.101562 53.523438 155.101562 C 51.296875 155.101562 49.492188 153.292969 49.492188 151.066406 C 49.492188 148.839844 51.296875 147.035156 53.523438 147.035156 C 55.746094 147.035156 57.550781 148.839844 57.550781 151.066406 Z M 57.550781 151.066406 "/>
<path style=" stroke:none;fill-rule:nonzero;fill:rgb(95.294118%,96.078431%,99.215686%);fill-opacity:1;" d="M 58.191406 134.949219 L 54.328125 151.066406 L 52.71875 151.066406 L 48.855469 134.949219 Z M 58.191406 134.949219 "/>
<path style=" stroke:none;fill-rule:nonzero;fill:rgb(95.294118%,96.078431%,99.215686%);fill-opacity:1;" d="M 48.855469 167.1875 L 52.71875 151.066406 L 54.328125 151.066406 L 58.191406 167.1875 Z M 48.855469 167.1875 "/>
<path style=" stroke:none;fill-rule:nonzero;fill:rgb(95.294118%,96.078431%,99.215686%);fill-opacity:1;" d="M 64.941406 163.355469 L 53.109375 151.757812 L 53.933594 150.378906 L 69.738281 155.34375 Z M 64.941406 163.355469 "/>
<path style=" stroke:none;fill-rule:nonzero;fill:rgb(95.294118%,96.078431%,99.215686%);fill-opacity:1;" d="M 42.101562 138.78125 L 53.933594 150.378906 L 53.109375 151.757812 L 37.304688 146.792969 Z M 42.101562 138.78125 "/>
<path style=" stroke:none;fill-rule:nonzero;fill:rgb(95.294118%,96.078431%,99.215686%);fill-opacity:1;" d="M 37.304688 155.34375 L 53.109375 150.378906 L 53.933594 151.757812 L 42.101562 163.355469 Z M 37.304688 155.34375 "/>
<path style=" stroke:none;fill-rule:nonzero;fill:rgb(95.294118%,96.078431%,99.215686%);fill-opacity:1;" d="M 69.738281 146.792969 L 53.933594 151.757812 L 53.109375 150.378906 L 64.941406 138.78125 Z M 69.738281 146.792969 "/>
<path style=" stroke:none;fill-rule:nonzero;fill:rgb(5.882353%,6.27451%,6.666667%);fill-opacity:1;" d="M 55.589844 151.066406 C 55.589844 152.210938 54.664062 153.136719 53.523438 153.136719 C 52.378906 153.136719 51.453125 152.210938 51.453125 151.066406 C 51.453125 149.925781 52.378906 148.996094 53.523438 148.996094 C 54.664062 148.996094 55.589844 149.925781 55.589844 151.066406 Z M 55.589844 151.066406 "/>
<path style=" stroke:none;fill-rule:nonzero;fill:rgb(5.882353%,6.27451%,6.666667%);fill-opacity:1;" d="M 264.3125 151.066406 C 264.3125 164.285156 253.605469 175 240.394531 175 C 227.1875 175 216.480469 164.285156 216.480469 151.066406 C 216.480469 137.851562 227.1875 127.136719 240.394531 127.136719 C 253.605469 127.136719 264.3125 137.851562 264.3125 151.066406 Z M 264.3125 151.066406 "/>
<path style=" stroke:none;fill-rule:nonzero;fill:rgb(95.294118%,96.078431%,99.215686%);fill-opacity:1;" d="M 240.394531 135.753906 C 248.847656 135.753906 255.699219 142.609375 255.699219 151.066406 C 255.699219 159.523438 248.847656 166.382812 240.394531 166.382812 C 231.945312 166.382812 225.09375 159.523438 225.09375 151.066406 C 225.101562 142.617188 231.949219 135.765625 240.394531 135.753906 M 240.394531 134.144531 C 231.054688 134.144531 223.484375 141.722656 223.484375 151.070312 C 223.484375 160.414062 231.054688 167.992188 240.394531 167.992188 C 249.734375 167.992188 257.308594 160.414062 257.308594 151.066406 C 257.308594 141.722656 249.734375 134.144531 240.394531 134.144531 Z M 240.394531 134.144531 "/>
<path style=" stroke:none;fill-rule:nonzero;fill:rgb(95.294118%,96.078431%,99.215686%);fill-opacity:1;" d="M 244.425781 151.066406 C 244.425781 153.292969 242.621094 155.101562 240.394531 155.101562 C 238.171875 155.101562 236.367188 153.292969 236.367188 151.066406 C 236.367188 148.839844 238.171875 147.035156 240.394531 147.035156 C 242.621094 147.035156 244.425781 148.839844 244.425781 151.066406 Z M 244.425781 151.066406 "/>
<path style=" stroke:none;fill-rule:nonzero;fill:rgb(95.294118%,96.078431%,99.215686%);fill-opacity:1;" d="M 245.0625 134.949219 L 241.199219 151.066406 L 239.589844 151.066406 L 235.726562 134.949219 Z M 245.0625 134.949219 "/>
<path style=" stroke:none;fill-rule:nonzero;fill:rgb(95.294118%,96.078431%,99.215686%);fill-opacity:1;" d="M 235.726562 167.1875 L 239.589844 151.066406 L 241.199219 151.066406 L 245.0625 167.1875 Z M 235.726562 167.1875 "/>
<path style=" stroke:none;fill-rule:nonzero;fill:rgb(95.294118%,96.078431%,99.215686%);fill-opacity:1;" d="M 251.816406 163.355469 L 239.984375 151.757812 L 240.808594 150.378906 L 256.613281 155.34375 Z M 251.816406 163.355469 "/>
<path style=" stroke:none;fill-rule:nonzero;fill:rgb(95.294118%,96.078431%,99.215686%);fill-opacity:1;" d="M 228.976562 138.78125 L 240.808594 150.378906 L 239.984375 151.757812 L 224.179688 146.792969 Z M 228.976562 138.78125 "/>
<path style=" stroke:none;fill-rule:nonzero;fill:rgb(95.294118%,96.078431%,99.215686%);fill-opacity:1;" d="M 224.179688 155.34375 L 239.984375 150.378906 L 240.808594 151.757812 L 228.976562 163.355469 Z M 224.179688 155.34375 "/>
<path style=" stroke:none;fill-rule:nonzero;fill:rgb(95.294118%,96.078431%,99.215686%);fill-opacity:1;" d="M 256.613281 146.792969 L 240.808594 151.757812 L 239.984375 150.378906 L 251.816406 138.78125 Z M 256.613281 146.792969 "/>
<path style=" stroke:none;fill-rule:nonzero;fill:rgb(5.882353%,6.27451%,6.666667%);fill-opacity:1;" d="M 242.464844 151.066406 C 242.464844 152.210938 241.539062 153.136719 240.394531 153.136719 C 239.253906 153.136719 238.328125 152.210938 238.328125 151.066406 C 238.328125 149.925781 239.253906 148.996094 240.394531 148.996094 C 241.539062 148.996094 242.464844 149.925781 242.464844 151.066406 Z M 242.464844 151.066406 "/>
<path style=" stroke:none;fill-rule:nonzero;fill:rgb(75.686275%,84.705882%,92.941176%);fill-opacity:1;" d="M 168.558594 73.441406 L 171.351562 73.332031 L 168.621094 101.007812 L 165.828125 101.117188 Z M 168.558594 73.441406 "/>
<path style=" stroke:none;fill-rule:nonzero;fill:rgb(75.686275%,84.705882%,92.941176%);fill-opacity:1;" d="M 225.851562 128.722656 L 224.757812 129.535156 L 227.339844 98.441406 L 228.355469 98.523438 Z M 225.851562 128.722656 "/>
<path style=" stroke:none;fill-rule:nonzero;fill:rgb(75.686275%,84.705882%,92.941176%);fill-opacity:1;" d="M 228.496094 80.242188 L 231.191406 81.140625 L 229.480469 98.480469 L 226.6875 98.589844 Z M 228.496094 80.242188 "/>
<path style=" stroke:none;fill-rule:nonzero;fill:rgb(91.372549%,53.333333%,38.431373%);fill-opacity:1;" d="M 203.082031 26.636719 C 203.078125 26.601562 203.078125 26.566406 203.078125 26.53125 C 203.078125 25.914062 203.105469 25.242188 203.164062 24.503906 L 197.722656 23.492188 C 197.808594 24.640625 197.796875 25.796875 197.683594 26.941406 C 197.664062 27.140625 197.640625 27.339844 197.613281 27.546875 C 197.378906 29.214844 196.84375 30.96875 195.667969 31.90625 L 204.1875 31.90625 C 203.648438 30.964844 203.101562 29.347656 203.082031 26.636719 Z M 203.082031 26.636719 "/>
<path style=" stroke:none;fill-rule:nonzero;fill:rgb(91.372549%,53.333333%,38.431373%);fill-opacity:1;" d="M 206.253906 21.71875 C 205.878906 23.898438 204.691406 25.960938 202.769531 26.664062 C 200.488281 27.5 198.800781 27.554688 196.171875 27.554688 C 192.585938 27.554688 192.703125 23.8125 192.601562 20.039062 C 192.5 16.25 192.804688 12.1875 194.222656 10.871094 C 197.050781 8.234375 205.355469 9.902344 206.367188 14.308594 C 206.890625 16.589844 206.613281 19.644531 206.253906 21.71875 Z M 206.253906 21.71875 "/>
<path style=" stroke:none;fill-rule:nonzero;fill:rgb(5.882353%,6.27451%,6.666667%);fill-opacity:1;" d="M 190.679688 13.058594 C 190.679688 13.058594 189.210938 12.730469 189.613281 11.265625 C 189.878906 10.292969 191.125 10.507812 191.125 10.507812 C 191.125 10.507812 189.945312 10.292969 189.945312 9.261719 C 189.945312 8.617188 190.445312 7.515625 191.949219 8.144531 C 193.710938 8.882812 195.722656 8.785156 197.25 8.527344 C 198.117188 8.339844 198.992188 8.214844 199.878906 8.15625 L 199.882812 8.15625 C 200.898438 8.140625 201.910156 8.277344 202.886719 8.558594 C 205.621094 9.378906 209.820312 11.839844 208.878906 17.390625 C 207.859375 23.386719 204.207031 26.023438 203.707031 26.386719 C 202.761719 27.074219 196.957031 27.214844 196.382812 26.640625 C 195.519531 25.777344 195.054688 22.316406 195.226562 16.28125 C 192.847656 15.90625 191.214844 15.742188 191.214844 15.742188 C 191.214844 15.742188 189.238281 15.816406 189.238281 14.371094 C 189.238281 12.925781 190.679688 13.058594 190.679688 13.058594 Z M 190.679688 13.058594 "/>
<path style=" stroke:none;fill-rule:nonzero;fill:rgb(91.372549%,53.333333%,38.431373%);fill-opacity:1;" d="M 193.492188 20.753906 C 193.414062 21.898438 194.269531 22.890625 195.410156 22.984375 C 196.550781 23.078125 197.554688 22.234375 197.664062 21.097656 C 197.71875 20.539062 197.546875 19.984375 197.1875 19.558594 C 196.824219 19.132812 196.304688 18.875 195.75 18.835938 C 194.257812 18.792969 193.585938 19.601562 193.492188 20.753906 Z M 193.492188 20.753906 "/>
<path style=" stroke:none;fill-rule:nonzero;fill:rgb(91.372549%,53.333333%,38.431373%);fill-opacity:1;" d="M 131.035156 56.03125 L 130.882812 55.957031 C 131.890625 55.835938 135.195312 54.886719 135.539062 55.714844 C 135.671875 56.03125 134.742188 56.511719 134.039062 56.824219 C 135.578125 57.5 139.054688 57.394531 141.007812 57.273438 C 141.269531 57.253906 141.519531 57.402344 141.628906 57.644531 C 141.742188 57.882812 141.695312 58.167969 141.511719 58.359375 C 137.992188 62.03125 130.847656 60.066406 130.847656 60.066406 L 129.042969 59.6875 Z M 131.035156 56.03125 "/>
<path style=" stroke:none;fill-rule:nonzero;fill:rgb(5.882353%,6.27451%,6.666667%);fill-opacity:1;" d="M 96.945312 12.773438 C 96.945312 12.773438 99.757812 21.96875 101.324219 26.738281 C 101.476562 27.195312 101.402344 27.699219 101.121094 28.09375 C 100.84375 28.488281 100.398438 28.726562 99.914062 28.738281 L 90.851562 28.960938 C 90.039062 28.980469 89.351562 28.359375 89.292969 27.546875 L 88.363281 14.671875 Z M 96.945312 12.773438 "/>
<path style=" stroke:none;fill-rule:nonzero;fill:rgb(91.372549%,53.333333%,38.431373%);fill-opacity:1;" d="M 83.566406 33.710938 C 83.566406 33.710938 86.167969 32.253906 85.40625 25.085938 L 90.824219 23.945312 C 90.824219 23.945312 90.367188 30.398438 93.171875 32.375 Z M 83.566406 33.710938 "/>
<use xlink:href="#surface26" mask="url(#mask7)"/>
<path style=" stroke:none;fill-rule:nonzero;fill:rgb(91.372549%,53.333333%,38.431373%);fill-opacity:1;" d="M 82.253906 22.378906 C 82.679688 24.546875 83.917969 26.582031 85.855469 27.238281 C 87.96875 28.019531 90.238281 28.273438 92.472656 27.972656 C 98.417969 27.339844 96.917969 13.8125 94.023438 11.246094 C 91.132812 8.679688 82.871094 10.546875 81.964844 14.972656 C 81.496094 17.265625 81.84375 20.3125 82.253906 22.378906 Z M 82.253906 22.378906 "/>
<path style=" stroke:none;fill-rule:nonzero;fill:rgb(5.882353%,6.27451%,6.666667%);fill-opacity:1;" d="M 91.21875 20.003906 C 91.21875 20.273438 90.996094 20.496094 90.726562 20.496094 C 90.453125 20.496094 90.230469 20.273438 90.230469 20.003906 C 90.230469 19.730469 90.453125 19.507812 90.726562 19.507812 C 90.996094 19.507812 91.21875 19.730469 91.21875 20.003906 Z M 91.21875 20.003906 "/>
<path style=" stroke:none;fill-rule:nonzero;fill:rgb(5.882353%,6.27451%,6.666667%);fill-opacity:1;" d="M 95.105469 19.589844 C 95.105469 19.863281 94.886719 20.082031 94.613281 20.082031 C 94.339844 20.082031 94.117188 19.863281 94.117188 19.589844 C 94.117188 19.316406 94.339844 19.09375 94.613281 19.09375 C 94.886719 19.09375 95.105469 19.316406 95.105469 19.589844 Z M 95.105469 19.589844 "/>
<path style=" stroke:none;fill-rule:nonzero;fill:rgb(5.882353%,6.27451%,6.666667%);fill-opacity:1;" d="M 94.128906 18.53125 C 94.003906 18.527344 93.902344 18.425781 93.902344 18.300781 C 93.902344 18.175781 94 18.070312 94.125 18.066406 L 95.433594 18.050781 L 95.4375 18.050781 C 95.5625 18.054688 95.660156 18.15625 95.660156 18.28125 C 95.664062 18.40625 95.566406 18.511719 95.441406 18.515625 L 94.132812 18.53125 Z M 94.128906 18.53125 "/>
<path style=" stroke:none;fill-rule:nonzero;fill:rgb(5.882353%,6.27451%,6.666667%);fill-opacity:1;" d="M 89.632812 19.132812 C 89.515625 19.132812 89.417969 19.046875 89.402344 18.929688 C 89.386719 18.816406 89.460938 18.707031 89.574219 18.675781 L 90.855469 18.335938 C 90.9375 18.308594 91.023438 18.332031 91.082031 18.390625 C 91.144531 18.449219 91.167969 18.539062 91.144531 18.621094 C 91.121094 18.703125 91.054688 18.765625 90.972656 18.78125 L 89.691406 19.125 C 89.671875 19.128906 89.652344 19.132812 89.632812 19.132812 Z M 89.632812 19.132812 "/>
<path style=" stroke:none;fill-rule:nonzero;fill:rgb(100%,100%,100%);fill-opacity:1;" d="M 91.046875 23.886719 C 91.046875 23.886719 92.871094 24.035156 94.140625 23.558594 C 94.140625 23.558594 94.160156 24.761719 92.71875 24.914062 C 91.28125 25.066406 91.046875 23.886719 91.046875 23.886719 Z M 91.046875 23.886719 "/>
<use xlink:href="#surface29" mask="url(#mask8)"/>
<path style=" stroke:none;fill-rule:nonzero;fill:rgb(5.882353%,6.27451%,6.666667%);fill-opacity:1;" d="M 97.28125 13.875 C 97.28125 13.875 96.234375 6.832031 84.972656 8.847656 C 82.164062 9.351562 78.222656 11.652344 77.753906 18.886719 C 77.539062 22.203125 76.476562 25.355469 75.65625 27.351562 C 75.457031 27.828125 75.511719 28.375 75.804688 28.796875 C 76.097656 29.222656 76.582031 29.472656 77.097656 29.460938 L 85.046875 29.265625 C 85.886719 29.246094 86.554688 28.550781 86.535156 27.710938 C 86.535156 27.6875 86.535156 27.664062 86.53125 27.640625 C 86.441406 26.289062 86.339844 24 86.328125 20.492188 C 86.691406 18.484375 85.554688 17.101562 87.164062 17.519531 C 93.140625 19.078125 96.839844 14 97.28125 13.875 Z M 97.28125 13.875 "/>
<path style=" stroke:none;fill-rule:nonzero;fill:rgb(91.372549%,53.333333%,38.431373%);fill-opacity:1;" d="M 88.28125 22.191406 C 88.40625 23.339844 87.570312 24.375 86.421875 24.496094 C 85.273438 24.617188 84.242188 23.785156 84.117188 22.632812 C 83.980469 21.503906 84.78125 20.476562 85.910156 20.335938 C 85.933594 20.335938 85.957031 20.332031 85.980469 20.332031 C 87.46875 20.242188 88.160156 21.039062 88.28125 22.191406 Z M 88.28125 22.191406 "/>
<path style=" stroke:none;fill-rule:nonzero;fill:rgb(91.372549%,53.333333%,38.431373%);fill-opacity:1;" d="M 106.25 169.585938 L 99.144531 168.738281 C 99.464844 166.046875 99.824219 162.8125 99.851562 162.285156 C 99.847656 162.316406 99.851562 162.347656 99.851562 162.367188 L 107.007812 162.367188 C 107.003906 162.582031 107.003906 163.234375 106.25 169.585938 Z M 106.25 169.585938 "/>
<path style=" stroke:none;fill-rule:nonzero;fill:rgb(91.372549%,53.333333%,38.431373%);fill-opacity:1;" d="M 77.734375 170.441406 L 70.574219 170.417969 C 70.574219 170.417969 70.597656 163.023438 70.597656 162.367188 L 77.757812 162.367188 C 77.757812 163.023438 77.734375 170.441406 77.734375 170.441406 Z M 77.734375 170.441406 "/>
<path style=" stroke:none;fill-rule:nonzero;fill:rgb(14.901961%,14.901961%,14.901961%);fill-opacity:1;" d="M 96.28125 167.324219 L 108.894531 167.109375 C 108.300781 152.089844 108.265625 136.339844 108.078125 121.289062 C 105.617188 105.0625 104.664062 85.847656 101.625 69.738281 L 74.53125 69.738281 C 74.53125 69.738281 70.269531 143.335938 68.730469 166.917969 L 81.296875 167.980469 C 83.558594 144.859375 87.40625 114.246094 89.558594 89.960938 C 92.035156 101.785156 93.378906 110.957031 95.527344 122.679688 C 95.960938 137.351562 96.324219 152.691406 96.28125 167.324219 Z M 96.28125 167.324219 "/>
<path style=" stroke:none;fill-rule:nonzero;fill:rgb(75.686275%,84.705882%,92.941176%);fill-opacity:1;" d="M 86.433594 173.210938 C 86.824219 173.207031 87.191406 173.046875 87.457031 172.757812 C 87.71875 172.472656 87.851562 172.089844 87.824219 171.699219 C 87.78125 171.15625 87.425781 170.6875 86.917969 170.496094 L 78.585938 167.707031 C 78.257812 167.597656 77.902344 167.636719 77.605469 167.8125 C 76.460938 168.609375 75.09375 169.015625 73.699219 168.972656 C 72.613281 168.898438 71.570312 168.515625 70.691406 167.875 C 70.535156 167.746094 70.316406 167.71875 70.132812 167.804688 C 69.949219 167.894531 69.832031 168.078125 69.832031 168.285156 L 69.832031 172.363281 C 69.832031 172.605469 69.929688 172.835938 70.101562 173.007812 C 70.273438 173.179688 70.503906 173.277344 70.746094 173.273438 Z M 86.433594 173.210938 "/>
<path style=" stroke:none;fill-rule:nonzero;fill:rgb(75.686275%,84.705882%,92.941176%);fill-opacity:1;" d="M 114.972656 173.210938 C 115.359375 173.210938 115.730469 173.046875 115.996094 172.757812 C 116.257812 172.472656 116.390625 172.089844 116.359375 171.699219 C 116.316406 171.15625 115.964844 170.6875 115.453125 170.496094 L 107.125 167.707031 C 106.796875 167.597656 106.441406 167.636719 106.144531 167.8125 C 105 168.609375 103.628906 169.015625 102.238281 168.972656 C 101.152344 168.898438 100.109375 168.515625 99.230469 167.875 C 99.074219 167.746094 98.855469 167.71875 98.671875 167.804688 C 98.484375 167.894531 98.367188 168.078125 98.367188 168.285156 L 98.367188 172.363281 C 98.367188 172.605469 98.464844 172.835938 98.636719 173.007812 C 98.808594 173.179688 99.042969 173.277344 99.285156 173.273438 Z M 114.972656 173.210938 "/>
<path style=" stroke:none;fill-rule:nonzero;fill:rgb(91.372549%,53.333333%,38.431373%);fill-opacity:1;" d="M 71.289062 80.042969 L 71.363281 79.886719 C 71.488281 80.894531 72.433594 84.203125 71.605469 84.546875 C 71.292969 84.679688 70.8125 83.75 70.5 83.046875 C 69.824219 84.585938 69.929688 88.066406 70.050781 90.019531 C 70.066406 90.28125 69.921875 90.53125 69.679688 90.640625 C 69.441406 90.753906 69.15625 90.707031 68.964844 90.523438 C 65.296875 87.003906 67.257812 79.851562 67.257812 79.851562 L 67.636719 78.046875 Z M 71.289062 80.042969 "/>
<path style=" stroke:none;fill-rule:nonzero;fill:rgb(95.294118%,96.078431%,99.215686%);fill-opacity:1;" d="M 102.996094 70.488281 C 101.566406 73.773438 74.90625 75.515625 74.53125 69.738281 C 74.292969 66.0625 76.132812 62.472656 76.132812 55.308594 C 76.132812 48.144531 70.171875 39.085938 75.539062 33.710938 C 77.097656 32.152344 79.3125 31.210938 82.589844 31.207031 C 82.835938 33.121094 94.296875 33.171875 94.386719 31.296875 C 94.828125 31.304688 95.171875 31.3125 95.386719 31.320312 C 106.695312 31.808594 101.722656 44.488281 101.613281 53.949219 C 101.476562 65.019531 104.46875 67.105469 102.996094 70.488281 Z M 102.996094 70.488281 "/>
<path style=" stroke:none;fill-rule:nonzero;fill:rgb(91.372549%,53.333333%,38.431373%);fill-opacity:1;" d="M 94.378906 31.097656 C 94.289062 32.972656 92.964844 33.296875 89.816406 33.503906 C 85.625 33.78125 82.683594 32.96875 82.4375 31.054688 L 82.445312 31.054688 C 86.574219 31.054688 91.972656 31.0625 94.378906 31.097656 Z M 94.378906 31.097656 "/>
<path style=" stroke:none;fill-rule:nonzero;fill:rgb(21.176471%,48.627451%,100%);fill-opacity:1;" d="M 90.078125 56.933594 C 90.664062 62.863281 90.421875 65.542969 90.191406 73.085938 C 90.136719 75.007812 88.5625 76.535156 86.644531 76.535156 L 77.179688 76.535156 C 76.1875 76.535156 75.238281 76.117188 74.566406 75.386719 C 73.894531 74.652344 73.558594 73.671875 73.644531 72.679688 C 74.460938 62.863281 74.730469 53.730469 75.207031 49.730469 C 75.207031 49.730469 74.980469 56.335938 74.179688 60.125 C 73.378906 63.914062 72.609375 80.667969 72.609375 80.667969 C 72.609375 80.667969 70.839844 81.054688 65.261719 81.054688 C 65.261719 81.054688 65.261719 62.253906 66.59375 56.78125 C 67.925781 51.308594 72.574219 33.3125 76.640625 31.902344 C 79.898438 30.769531 84.445312 31.050781 84.445312 31.050781 C 84.445312 31.050781 89.394531 50.003906 90.078125 56.933594 Z M 90.078125 56.933594 "/>
<path style=" stroke:none;fill-rule:nonzero;fill:rgb(21.176471%,48.627451%,100%);fill-opacity:1;" d="M 92.933594 31.054688 C 92.933594 31.054688 90.078125 47.59375 90.078125 56.933594 C 90.078125 60.125 89.882812 63.777344 90.027344 72.902344 C 90.042969 73.859375 90.445312 74.769531 91.136719 75.425781 C 91.828125 76.082031 92.757812 76.433594 93.710938 76.398438 L 100.707031 76.136719 C 101.667969 76.101562 102.574219 75.675781 103.214844 74.960938 C 103.859375 74.246094 104.183594 73.296875 104.113281 72.339844 C 103.648438 65.707031 102.691406 52.21875 102.46875 50.378906 L 108.238281 58.496094 C 108.964844 59.515625 110.09375 60.167969 111.335938 60.289062 L 131.644531 62.105469 C 131.644531 62.105469 132 58.566406 132.570312 54.535156 L 113.238281 52.191406 C 113.238281 52.191406 103.109375 33.816406 99.878906 32.054688 C 98.46875 31.285156 96.535156 31.175781 95.378906 31.125 C 93.957031 31.058594 92.933594 31.054688 92.933594 31.054688 Z M 92.933594 31.054688 "/>
<path style=" stroke:none;fill-rule:nonzero;fill:rgb(21.176471%,48.627451%,100%);fill-opacity:1;" d="M 90.144531 73.550781 C 90.097656 73.550781 90.0625 73.511719 90.0625 73.464844 L 89.992188 56.9375 C 89.992188 56.890625 90.03125 56.851562 90.078125 56.851562 C 90.125 56.851562 90.164062 56.890625 90.164062 56.9375 L 90.230469 73.464844 C 90.230469 73.488281 90.222656 73.511719 90.207031 73.527344 C 90.191406 73.542969 90.167969 73.550781 90.144531 73.550781 Z M 90.144531 73.550781 "/>
<use xlink:href="#surface32" mask="url(#mask9)"/>
<path style=" stroke:none;fill-rule:nonzero;fill:rgb(4.705882%,73.72549%,54.509804%);fill-opacity:1;" d="M 149.578125 53.082031 L 151.332031 54.28125 C 151.75 54.570312 151.859375 55.140625 151.574219 55.5625 L 148.957031 59.394531 C 148.671875 59.816406 148.097656 59.921875 147.679688 59.636719 L 145.921875 58.4375 C 145.503906 58.148438 145.394531 57.578125 145.683594 57.15625 L 148.296875 53.324219 C 148.582031 52.902344 149.15625 52.796875 149.578125 53.082031 Z M 149.578125 53.082031 "/>
<path style=" stroke:none;fill-rule:nonzero;fill:rgb(12.156863%,16.470588%,21.568627%);fill-opacity:1;" d="M 152.222656 54.007812 L 150.082031 53.40625 C 149.570312 53.265625 149.042969 53.5625 148.898438 54.074219 L 148.652344 54.949219 C 148.582031 55.195312 148.613281 55.457031 148.738281 55.683594 C 148.863281 55.90625 149.074219 56.070312 149.320312 56.136719 L 149.855469 56.289062 L 150.917969 56.589844 L 151.453125 56.738281 C 151.96875 56.882812 152.5 56.582031 152.644531 56.070312 L 152.890625 55.195312 C 153.03125 54.683594 152.730469 54.152344 152.222656 54.007812 Z M 152 54.722656 C 151.960938 54.867188 151.828125 54.964844 151.683594 54.960938 C 151.652344 54.960938 151.625 54.957031 151.597656 54.953125 L 150.125 54.539062 C 149.96875 54.496094 149.867188 54.339844 149.890625 54.179688 C 149.914062 54.019531 150.050781 53.898438 150.214844 53.898438 C 150.242188 53.898438 150.269531 53.902344 150.296875 53.910156 L 151.773438 54.324219 C 151.859375 54.347656 151.929688 54.402344 151.96875 54.476562 C 152.011719 54.550781 152.023438 54.640625 152 54.722656 Z M 152 54.722656 "/>
<path style=" stroke:none;fill-rule:nonzero;fill:rgb(12.156863%,16.470588%,21.568627%);fill-opacity:1;" d="M 150.546875 58.339844 L 150.875 57.164062 L 150.765625 57.132812 L 151.300781 55.222656 L 150.238281 54.921875 L 148.71875 60.347656 C 148.636719 60.640625 148.808594 60.945312 149.101562 61.027344 C 149.242188 61.066406 149.394531 61.050781 149.523438 60.976562 C 149.648438 60.90625 149.742188 60.785156 149.785156 60.644531 L 149.980469 59.949219 L 150.089844 59.980469 L 150.367188 58.996094 L 150.253906 58.964844 L 150.4375 58.308594 Z M 150.546875 58.339844 "/>
<path style="fill:none;stroke-width:1;stroke-linecap:butt;stroke-linejoin:miter;stroke:rgb(12.156863%,16.470588%,21.568627%);stroke-opacity:1;stroke-miterlimit:10;" d="M 449.597094 153.609801 C 449.595695 151.31597 446.973284 149.469747 443.741403 149.467268 C 440.509522 149.464789 437.89383 151.313615 437.895229 153.607446 C 437.893588 155.890225 440.507995 157.750537 443.739876 157.753016 C 446.979761 157.741406 449.595454 155.892581 449.597094 153.609801 Z M 449.597094 153.609801 " transform="matrix(0.0903975,-0.328825,0.328612,0.0904563,60.74673,184.404865)"/>
<path style=" stroke:none;fill-rule:nonzero;fill:rgb(91.372549%,53.333333%,38.431373%);fill-opacity:1;" d="M 149.09375 52.480469 C 149.09375 52.480469 151.773438 53.859375 154.660156 53.859375 L 155.59375 49.234375 C 155.59375 49.234375 152.851562 46.753906 151.859375 47.007812 C 151.042969 47.21875 151.617188 48.011719 152.351562 48.742188 "/>
<path style=" stroke:none;fill-rule:nonzero;fill:rgb(91.372549%,53.333333%,38.431373%);fill-opacity:1;" d="M 149.09375 52.480469 C 149.09375 52.480469 151.773438 53.859375 154.660156 53.859375 L 155.59375 49.234375 C 155.59375 49.234375 152.851562 46.753906 151.859375 47.007812 C 151.042969 47.21875 151.617188 48.011719 152.351562 48.742188 "/>
<path style=" stroke:none;fill-rule:nonzero;fill:rgb(91.372549%,53.333333%,38.431373%);fill-opacity:1;" d="M 182.113281 169.585938 C 181.359375 163.234375 181.359375 162.582031 181.359375 162.367188 L 188.515625 162.367188 C 188.515625 162.34375 188.515625 162.316406 188.515625 162.285156 C 188.539062 162.8125 188.902344 166.046875 189.222656 168.738281 Z M 182.113281 169.585938 "/>
<path style=" stroke:none;fill-rule:nonzero;fill:rgb(91.372549%,53.333333%,38.431373%);fill-opacity:1;" d="M 210.628906 170.441406 C 210.628906 170.441406 210.605469 163.023438 210.605469 162.367188 L 217.761719 162.367188 C 217.761719 163.023438 217.789062 170.417969 217.789062 170.417969 Z M 210.628906 170.441406 "/>
<path style=" stroke:none;fill-rule:nonzero;fill:rgb(75.686275%,84.705882%,92.941176%);fill-opacity:1;" d="M 201.929688 173.210938 C 201.539062 173.207031 201.171875 173.046875 200.90625 172.757812 C 200.644531 172.472656 200.511719 172.089844 200.539062 171.699219 C 200.582031 171.15625 200.9375 170.6875 201.445312 170.496094 L 209.777344 167.707031 C 210.105469 167.597656 210.460938 167.636719 210.757812 167.8125 C 211.902344 168.609375 213.269531 169.015625 214.664062 168.972656 C 215.75 168.898438 216.792969 168.515625 217.671875 167.875 C 217.828125 167.746094 218.046875 167.71875 218.230469 167.804688 C 218.414062 167.894531 218.53125 168.078125 218.53125 168.285156 L 218.53125 172.363281 C 218.53125 172.605469 218.433594 172.835938 218.261719 173.007812 C 218.089844 173.179688 217.859375 173.277344 217.617188 173.273438 Z M 201.929688 173.210938 "/>
<path style=" stroke:none;fill-rule:nonzero;fill:rgb(75.686275%,84.705882%,92.941176%);fill-opacity:1;" d="M 173.390625 173.210938 C 173.003906 173.210938 172.632812 173.046875 172.367188 172.757812 C 172.105469 172.472656 171.972656 172.089844 172.003906 171.699219 C 172.042969 171.15625 172.398438 170.6875 172.910156 170.496094 L 181.238281 167.707031 C 181.566406 167.597656 181.921875 167.636719 182.21875 167.8125 C 183.363281 168.609375 184.734375 169.015625 186.125 168.972656 C 187.210938 168.898438 188.253906 168.515625 189.132812 167.875 C 189.289062 167.746094 189.507812 167.71875 189.691406 167.804688 C 189.878906 167.894531 189.996094 168.078125 189.992188 168.285156 L 189.992188 172.363281 C 189.992188 172.605469 189.898438 172.835938 189.726562 173.007812 C 189.554688 173.179688 189.320312 173.277344 189.078125 173.273438 Z M 173.390625 173.210938 "/>
<path style=" stroke:none;fill-rule:nonzero;fill:rgb(14.901961%,14.901961%,14.901961%);fill-opacity:1;" d="M 207.066406 167.980469 L 219.632812 167.597656 C 218.101562 144.164062 213.363281 67.746094 213.363281 67.746094 L 187.4375 69.347656 L 187.171875 71.164062 L 187.078125 71.140625 C 184.257812 86.09375 182.246094 101.804688 180.003906 116.960938 C 179.636719 119.429688 179.449219 121.921875 179.445312 124.421875 C 179.417969 138.382812 179.445312 153.90625 179.472656 167.792969 L 192.082031 168.007812 C 192.039062 153.367188 193.070312 137.371094 193.515625 122.6875 C 195.636719 111.089844 196.933594 98.964844 199.175781 87.25 C 201.339844 111.574219 204.800781 144.832031 207.066406 167.980469 Z M 207.066406 167.980469 "/>
<path style=" stroke:none;fill-rule:nonzero;fill:rgb(91.372549%,53.333333%,38.431373%);fill-opacity:1;" d="M 220.996094 80.035156 C 220.996094 81.050781 220.460938 84.449219 221.320312 84.691406 C 221.839844 84.835938 222.449219 82.304688 222.449219 82.304688 "/>
<path style=" stroke:none;fill-rule:nonzero;fill:rgb(91.372549%,53.333333%,38.431373%);fill-opacity:1;" d="M 225.066406 79.5 C 225.066406 79.5 227.882812 86.359375 224.671875 90.300781 C 224.503906 90.507812 224.226562 90.585938 223.976562 90.507812 C 223.722656 90.425781 223.546875 90.195312 223.53125 89.933594 C 223.375 87.273438 222.839844 81.816406 221.089844 82.453125 L 221.089844 78.171875 "/>
<path style=" stroke:none;fill-rule:nonzero;fill:rgb(21.176471%,48.627451%,100%);fill-opacity:1;" d="M 187.03125 53.945312 C 186.921875 44.488281 181.953125 31.609375 193.257812 31.125 C 194.628906 31.0625 201.304688 31.054688 206.195312 31.054688 C 209.476562 31.054688 212.175781 32.0625 213.730469 33.621094 C 219.097656 38.992188 212.511719 48.148438 212.511719 55.3125 C 212.511719 62.476562 215.746094 65.6875 215.507812 69.359375 C 215.132812 75.140625 187.074219 73.773438 185.644531 70.492188 C 184.175781 67.105469 187.160156 65.019531 187.03125 53.945312 Z M 187.03125 53.945312 "/>
<path style=" stroke:none;fill-rule:nonzero;fill:rgb(21.176471%,48.627451%,100%);fill-opacity:1;" d="M 219.304688 80.777344 L 216.203125 59.867188 L 208.515625 38.941406 L 215.488281 36.375 L 223.3125 57.660156 C 223.398438 57.898438 223.460938 58.148438 223.5 58.398438 L 226.65625 79.683594 Z M 219.304688 80.777344 "/>
<path style=" stroke:none;fill-rule:nonzero;fill:rgb(21.176471%,48.627451%,100%);fill-opacity:1;" d="M 176.222656 60.109375 C 175.945312 60.109375 175.664062 60.078125 175.394531 60.011719 L 153.523438 54.808594 L 155.179688 47.839844 L 174.648438 52.472656 L 187.121094 34.117188 L 193.039062 38.144531 L 179.179688 58.542969 C 178.515625 59.523438 177.40625 60.109375 176.222656 60.109375 Z M 176.222656 60.109375 "/>
<path style=" stroke:none;fill-rule:nonzero;fill:rgb(91.372549%,53.333333%,38.431373%);fill-opacity:1;" d="M 153.003906 49.339844 C 153.074219 49.023438 153.015625 48.691406 152.839844 48.421875 C 152.664062 48.152344 152.386719 47.964844 152.070312 47.902344 C 151.226562 47.726562 149.992188 47.589844 149.460938 48.121094 C 148.617188 48.964844 148.046875 51.621094 148.617188 52.1875 C 149.183594 52.757812 151.769531 53.566406 152.183594 52.273438 C 152.453125 51.425781 152.808594 50.164062 153.003906 49.339844 Z M 153.003906 49.339844 "/>
<path style=" stroke:none;fill-rule:nonzero;fill:rgb(21.176471%,48.627451%,100%);fill-opacity:1;" d="M 84.441406 31.054688 C 84.441406 31.054688 90.101562 42.984375 90.101562 57.355469 L 81.796875 39.300781 L 83.8125 36.765625 L 80.984375 34.765625 L 81.515625 31.085938 C 82.4375 30.898438 84.441406 31.054688 84.441406 31.054688 Z M 84.441406 31.054688 "/>
<path style=" stroke:none;fill-rule:nonzero;fill:rgb(21.176471%,48.627451%,100%);fill-opacity:1;" d="M 92.933594 31.054688 C 92.933594 31.054688 89.4375 45.148438 90.101562 57.355469 L 96.207031 39.300781 L 94.378906 37.035156 L 96.671875 35.296875 L 95.382812 31.121094 Z M 92.933594 31.054688 "/>
<use xlink:href="#surface35" mask="url(#mask10)"/>
<use xlink:href="#surface38" mask="url(#mask11)"/>
<use xlink:href="#surface41" mask="url(#mask12)"/>
<use xlink:href="#surface44" mask="url(#mask13)"/>
<use xlink:href="#surface47" mask="url(#mask14)"/>
<path style=" stroke:none;fill-rule:nonzero;fill:rgb(100%,100%,100%);fill-opacity:1;" d="M 157.105469 85.402344 C 157.042969 85.582031 156.875 85.703125 156.683594 85.707031 C 156.492188 85.707031 156.320312 85.589844 156.253906 85.414062 C 156.070312 84.875 155.777344 84.382812 155.390625 83.964844 C 154.824219 83.449219 154.152344 83.070312 153.421875 82.855469 C 153.242188 82.792969 153.117188 82.628906 153.113281 82.4375 C 153.105469 82.246094 153.222656 82.074219 153.398438 82.003906 C 154.101562 81.738281 154.742188 81.34375 155.292969 80.832031 C 155.703125 80.355469 156.019531 79.804688 156.21875 79.210938 C 156.285156 79.027344 156.460938 78.910156 156.652344 78.914062 C 156.847656 78.917969 157.015625 79.046875 157.074219 79.230469 C 157.246094 79.871094 157.546875 80.476562 157.953125 81 C 158.460938 81.5 159.085938 81.867188 159.769531 82.066406 C 159.953125 82.128906 160.074219 82.300781 160.074219 82.492188 C 160.074219 82.6875 159.949219 82.859375 159.765625 82.921875 C 159.082031 83.128906 158.453125 83.484375 157.921875 83.964844 C 157.546875 84.375 157.265625 84.867188 157.105469 85.402344 Z M 157.105469 85.402344 "/>
<path style=" stroke:none;fill-rule:nonzero;fill:rgb(100%,100%,100%);fill-opacity:1;" d="M 148.75 90.269531 C 148.707031 90.394531 148.589844 90.476562 148.457031 90.476562 C 148.328125 90.480469 148.210938 90.398438 148.164062 90.277344 C 148.035156 89.90625 147.832031 89.566406 147.566406 89.277344 C 147.179688 88.921875 146.714844 88.664062 146.210938 88.515625 C 146.085938 88.472656 146.003906 88.355469 146 88.226562 C 145.996094 88.09375 146.074219 87.976562 146.195312 87.925781 C 146.679688 87.746094 147.121094 87.472656 147.5 87.121094 C 147.785156 86.792969 148 86.414062 148.136719 86.003906 C 148.183594 85.878906 148.304688 85.796875 148.4375 85.800781 C 148.570312 85.804688 148.6875 85.890625 148.726562 86.015625 C 148.847656 86.460938 149.054688 86.875 149.335938 87.238281 C 149.683594 87.582031 150.113281 87.832031 150.582031 87.96875 C 150.710938 88.011719 150.792969 88.132812 150.792969 88.265625 C 150.792969 88.398438 150.710938 88.515625 150.582031 88.558594 C 150.113281 88.703125 149.679688 88.949219 149.3125 89.277344 C 149.054688 89.5625 148.859375 89.902344 148.75 90.269531 Z M 148.75 90.269531 "/>
</g>
</svg>
