<?xml version="1.0" encoding="UTF-8"?>
<svg xmlns="http://www.w3.org/2000/svg" xmlns:xlink="http://www.w3.org/1999/xlink" width="50pt" height="50pt" viewBox="0 0 50 50" version="1.1">
<g id="surface1">
<path style=" stroke:none;fill-rule:nonzero;fill:rgb(0%,0%,0%);fill-opacity:1;" d="M 48.828125 17.1875 L 42.980469 17.1875 L 41.355469 13.125 C 39.683594 8.949219 35.699219 6.25 31.203125 6.25 L 18.796875 6.25 C 14.300781 6.25 10.316406 8.949219 8.640625 13.125 L 7.019531 17.1875 L 1.171875 17.1875 C 0.410156 17.1875 -0.148438 17.90625 0.0351562 18.640625 L 0.621094 20.988281 C 0.75 21.507812 1.21875 21.875 1.757812 21.875 L 3.71875 21.875 C 2.40625 23.019531 1.5625 24.683594 1.5625 26.5625 L 1.5625 31.25 C 1.5625 32.824219 2.164062 34.246094 3.125 35.34375 L 3.125 40.625 C 3.125 42.351562 4.523438 43.75 6.25 43.75 L 9.375 43.75 C 11.101562 43.75 12.5 42.351562 12.5 40.625 L 12.5 37.5 L 37.5 37.5 L 37.5 40.625 C 37.5 42.351562 38.898438 43.75 40.625 43.75 L 43.75 43.75 C 45.476562 43.75 46.875 42.351562 46.875 40.625 L 46.875 35.34375 C 47.835938 34.246094 48.4375 32.824219 48.4375 31.25 L 48.4375 26.5625 C 48.4375 24.683594 47.59375 23.019531 46.28125 21.875 L 48.242188 21.875 C 48.78125 21.875 49.25 21.507812 49.378906 20.988281 L 49.964844 18.640625 C 50.148438 17.90625 49.589844 17.1875 48.828125 17.1875 Z M 14.445312 15.445312 C 15.160156 13.667969 16.882812 12.5 18.796875 12.5 L 31.203125 12.5 C 33.117188 12.5 34.839844 13.667969 35.554688 15.445312 L 37.5 20.3125 L 12.5 20.3125 Z M 9.375 31.230469 C 7.5 31.230469 6.25 29.984375 6.25 28.117188 C 6.25 26.246094 7.5 25 9.375 25 C 11.25 25 14.0625 27.804688 14.0625 29.671875 C 14.0625 31.542969 11.25 31.230469 9.375 31.230469 Z M 40.625 31.230469 C 38.75 31.230469 35.9375 31.542969 35.9375 29.671875 C 35.9375 27.804688 38.75 25 40.625 25 C 42.5 25 43.75 26.246094 43.75 28.117188 C 43.75 29.984375 42.5 31.230469 40.625 31.230469 Z M 40.625 31.230469 "/>
</g>
</svg>
